<svg xmlns="http://www.w3.org/2000/svg" width="24" height="24" fill="none" viewBox="0 0 24 24" id="yahoo">
  <path fill="#3747D6" d="M3 4C1.89543 4 1 4.89543 1 6V18C1 19.1046 1.89543 20 3 20H21C22.1046 20 23 19.1046 23 18V6C23 4.89543 22.1046 4 21 4H3Z"></path>
  <path fill="#90CAEA" d="M4.5 6.5C3.94772 6.5 3.5 6.94772 3.5 7.5V9.5C3.5 9.88852 3.72504 10.2419 4.07711 10.4062L11.5771 13.9062C11.8452 14.0313 12.1548 14.0313 12.4229 13.9062L19.9229 10.4062C20.275 10.2419 20.5 9.88852 20.5 9.5V7.5C20.5 6.94772 20.0523 6.5 19.5 6.5H4.5Z"></path>
</svg>
